<?xml version="1.0" encoding="UTF-8"?>
<svg id="Layer_1" data-name="Layer 1" xmlns="http://www.w3.org/2000/svg" viewBox="0 0 2584 1080">
  <defs>
    <style>
      .cls-1 {
        fill: #c6c5c5;
      }

      .cls-2 {
        fill: #1e1b1d;
      }

      .cls-3 {
        fill: #771441;
      }
    </style>
  </defs>
  <g>
    <path class="cls-2" d="m957.09,682.36v-268.76h44.98v113.11h127.29v-113.11h44.79v268.76h-44.79v-113.48h-127.29v113.48h-44.98Z"/>
    <path class="cls-2" d="m1387.3,594.07h22.02c1.74-24.14-.93-45.1-8.03-62.9-7.09-17.79-17.95-31.57-32.57-41.34-14.62-9.77-32.38-14.65-53.29-14.65-19.78,0-37.21,4.48-52.26,13.44-15.06,8.96-26.82,21.56-35.28,37.79-8.46,16.24-12.69,35.37-12.69,57.39,0,20.41,4.32,38.45,12.97,54.13,8.65,15.68,20.68,27.94,36.12,36.77,15.43,8.83,33.34,13.25,53.75,13.25s37.17-5.04,53.29-15.12c16.11-10.08,28.03-24.2,35.74-42.37l-44.42-13.44c-4.36,9.33-10.54,16.46-18.57,21.37-8.03,4.92-17.58,7.37-28.65,7.37-17.17,0-30.24-5.6-39.2-16.8-7.03-8.79-11.29-20.43-12.8-34.9h123.86Zm-69.99-79.51c16.3,0,28.24,5.04,35.83,15.12,5.39,7.16,8.89,17.31,10.51,30.42h-99.12c2.06-11.65,5.95-21.15,11.71-28.46,8.96-11.39,22.65-17.08,41.06-17.08Z"/>
    <path class="cls-2" d="m1592.43,480.78v14.41c-2.39-2.17-4.91-4.21-7.56-6.11-13-9.27-29.09-13.91-48.25-13.91s-35.59,4.64-49.65,13.91c-14.06,9.27-24.92,21.9-32.57,37.89-7.65,15.99-11.48,34.19-11.48,54.59s3.79,38.26,11.38,54.31c7.59,16.05,18.29,28.74,32.1,38.08,13.81,9.33,29.99,14,48.53,14,19.66,0,36.14-4.67,49.46-14,.82-.58,1.63-1.17,2.43-1.77v19.12c.25,9.58-1.65,17.57-5.69,23.98-4.04,6.41-9.74,11.26-17.08,14.56-7.34,3.3-15.68,4.95-25.01,4.95-7.96,0-15.46-1.77-22.49-5.32-7.03-3.55-12.48-8.99-16.33-16.33l-41.43,20.53c5.23,9.21,11.95,17.08,20.16,23.61s17.45,11.54,27.72,15.02c10.26,3.48,21,5.23,32.2,5.23,15.18,0,29.02-2.05,41.53-6.16,12.51-4.11,22.99-10.36,31.45-18.76,8.46-8.4,14.19-19.13,17.17-32.2.99-4.48,1.71-9.05,2.15-13.72.43-4.67.65-9.55.65-14.65v-211.28h-39.38Zm-21.37,158.55c-7.4,5.54-17.14,8.3-29.21,8.3s-21.34-2.92-28.93-8.77c-7.59-5.85-13.22-13.78-16.89-23.8-3.67-10.01-5.51-21.18-5.51-33.5s1.87-23.3,5.6-33.32c3.73-10.01,9.52-17.98,17.36-23.89,7.84-5.91,17.79-8.87,29.86-8.87,11.45,0,20.78,2.77,28,8.31,7.21,5.54,12.53,13.25,15.96,23.14,3.42,9.89,5.13,21.43,5.13,34.62s-1.71,24.58-5.13,34.53c-3.42,9.96-8.84,17.7-16.24,23.24Z"/>
    <path class="cls-2" d="m1844.95,594.07h22.02c1.74-24.14-.93-45.1-8.03-62.9-7.09-17.79-17.95-31.57-32.57-41.34-14.62-9.77-32.38-14.65-53.29-14.65-19.78,0-37.21,4.48-52.26,13.44-15.06,8.96-26.82,21.56-35.28,37.79-8.46,16.24-12.69,35.37-12.69,57.39,0,20.41,4.32,38.45,12.97,54.13,8.65,15.68,20.68,27.94,36.12,36.77,15.43,8.83,33.34,13.25,53.75,13.25s37.17-5.04,53.29-15.12c16.11-10.08,28.03-24.2,35.74-42.37l-44.42-13.44c-4.36,9.33-10.54,16.46-18.57,21.37-8.03,4.92-17.58,7.37-28.65,7.37-17.17,0-30.24-5.6-39.2-16.8-7.03-8.79-11.29-20.43-12.8-34.9h123.86Zm-69.99-79.51c16.3,0,28.24,5.04,35.83,15.12,5.39,7.16,8.89,17.31,10.51,30.42h-99.12c2.06-11.65,5.95-21.15,11.71-28.46,8.96-11.39,22.65-17.08,41.06-17.08Z"/>
    <path class="cls-2" d="m1912.51,682.36v-274.36h44.98v274.36h-44.98Z"/>
    <path class="cls-1" d="m2192.11,682.36h22.77l-95.19-268.76h-26.69l-95.19,268.76h22.77l23.84-67.56h123.69l23.99,67.56Zm-140.5-87.91l54.48-154.37,54.81,154.37h-109.29Z"/>
    <path class="cls-1" d="m2257.21,682.36v-268.76h21.46v268.76h-21.46Z"/>
  </g>
  <path class="cls-3" d="m793.3,259.14c-29.39,0-57.38,6.07-82.81,17-30.93-25.54-68.98-39.5-108.98-39.64-.21,0-.41,0-.62,0-24.41,0-48.04,4.95-70.23,14.72-13.9,6.12-26.87,14.11-38.59,23.66-24.62-10.13-51.57-15.74-79.8-15.74v39.61c17.37,0,34.15,2.62,49.96,7.46-5.15,6.99-9.8,14.39-13.86,22.15-17.81,34-23.97,73.6-17.35,111.52,1.62,9.3,3.66,20.68,6.09,33.72-.21.05-.41.1-.62.16-23.65,6.07-47.04,20.2-67.66,40.86-18.34,18.39-33.74,41-44.54,65.4-3.34,7.15-39.28,88.97-2.59,223.72l9.94,39.77,16.31-.87c35.84-1.9,63.93-12.98,93.93-37.04,13.75-11.03,39.18-38.19,54.98-96.2,2.34-8.58,5.9-34.17,6.46-41.1,3.44-42.51-4.21-87.36-12.99-129.5-1.81-8.68-3.53-17.11-5.15-25.23,8.24,2.82,16.35,7.27,24.28,13.33,18.33,14.02,30.19,39.24,35.23,74.95,5.17,36.56,1.52,72.64-1.12,90.9-3.32,22.98-9.29,44.64-17.76,64.4-10.95,25.53-25.78,43.75-33.65,52.35l-30.39,33.18h106.82c48.34,0,89.49-22.66,122.29-67.35,24.61-33.53,44.44-79.71,58.95-137.26,24.2-95.99,25.51-190.3,25.56-194.26v-31.13c0-38.3-12.37-74.96-35.22-105.43,16.73-5.5,34.6-8.48,53.15-8.48v-39.61Zm-246.67,28.33c17.27-7.6,35.69-11.48,54.75-11.36,25.46.09,49.94,7.5,71.17,21.24-29.9,21.04-54.09,49.67-69.76,83.06-16.06-34.23-41.08-63.45-72.02-84.63,5.04-3.1,10.32-5.88,15.86-8.32Zm-82.79,377.63c-.5,6.11-3.81,28.79-5.2,33.88-13.33,48.96-33.49,69.25-41.54,75.71-18.81,15.08-35.3,23.2-55.17,26.63l-1.85-7.4-.11-.41c-33.51-122.85-.13-196.01.17-196.64l.29-.63c18.44-41.78,51.31-74.39,84.15-83.65,2.15,10.86,4.47,22.33,6.96,34.27,8.17,39.24,15.32,80.72,12.29,118.23Zm271.93-252.44v30.77c-.05,3.42-1.67,95.3-24.5,185.52-13.27,52.41-30.92,93.84-52.48,123.12-25.24,34.3-54.75,50.97-90.2,50.97h-22.22c5.49-8.83,10.99-18.98,15.84-30.3,9.84-22.93,16.75-47.95,20.57-74.35,2.94-20.34,6.99-60.66,1.14-102.1-6.55-46.37-23.51-80.31-50.39-100.87-17.79-13.61-36.9-21.76-56.57-24.3-2.79-14.89-5.1-27.78-6.9-38.07-7.11-40.69,4.45-80.79,29.4-110.32,49.98,29.81,83.54,84.41,83.54,146.72h39.61c0-61.11,32.28-114.81,80.68-144.98,21.02,24.85,32.49,55.78,32.49,88.18Z"/>
</svg>
